<svg xmlns="http://www.w3.org/2000/svg" version="1.1" xmlns:xlink="http://www.w3.org/1999/xlink" xmlns:svgjs="http://svgjs.dev/svgjs" width="1000" height="1000" viewBox="0 0 1000 1000"><rect width="1000" height="1000" fill="#000000"></rect><g transform="matrix(0.7,0,0,0.7,149.57576315483436,282.1265587044535)"><svg viewBox="0 0 396 247" data-background-color="#39a2d1" preserveAspectRatio="xMidYMid meet" height="623" width="1000" xmlns="http://www.w3.org/2000/svg" xmlns:xlink="http://www.w3.org/1999/xlink"><g id="tight-bounds" transform="matrix(1,0,0,1,0.23999698066830888,-0.09999999999999432)"><svg viewBox="0 0 395.52 247.2" height="247.2" width="395.52"><g><svg></svg></g><g><svg viewBox="0 0 395.52 247.2" height="247.2" width="395.52"><g><g><path xmlns="http://www.w3.org/2000/svg" d="M146.609 192.45c-4.592 7.143-12.097 13.691-22.514 19.644-7.016 4.252-15.201 7.441-24.556 9.567-9.354 2.126-18.815 3.189-28.381 3.189-9.78 0-21.898-3.189-36.355-9.567-10.417-5.102-18.645-11.161-24.683-18.177-3.786-4.368-6.393-8.983-7.821-13.846l39.084 0c1.933 1.898 4.098 3.579 6.495 5.044 7.441 4.592 16.689 6.888 27.744 6.889 12.756 0 23.45-2.339 32.081-7.016 2.717-1.479 5.004-3.118 6.862-4.917h36.403c-1.091 3.294-2.544 6.357-4.359 9.19zM15.669 51.497c5.74-8.589 12.543-14.797 20.41-18.623 4.252-2.126 11.544-4.422 21.876-6.889 10.29-2.424 17.773-3.635 22.451-3.635 6.165 0 12.969 0.744 20.409 2.232 7.441 1.488 13.5 3.614 18.177 6.378 9.354 5.315 16.264 10.098 20.729 14.351 4.465 4.252 6.697 9.567 6.696 15.944 0 0.919-0.082 1.814-0.246 2.685l-32.887 0c-2.516-2.798-4.971-4.756-7.367-5.874-3.189-1.063-7.802-2.232-13.84-3.507-6.08-1.276-11.459-1.913-16.136-1.914-5.102 0-10.417 1.063-15.945 3.189-5.071 1.95-9.391 4.652-12.959 8.106l-37.696 0c1.434-4.108 3.543-8.255 6.328-12.443zM384.507 28.855c4.337 3.954 6.506 7.313 6.505 10.078 0 6.959-0.122 15.294-0.367 25.007l-58.38 0c6.572-8.828 13.718-19.396 21.436-31.704 1.913-2.551 4.677-4.741 8.291-6.57 3.614-1.786 7.441-2.679 11.481-2.678 2.976 0 6.654 1.956 11.034 5.867zM394.52 210.5c-0.213 5.102-2.232 8.759-6.059 10.97-3.827 2.254-7.654 3.38-11.48 3.38-8.504 0-14.074-2.976-16.711-8.929-2.679-5.953-4.018-14.457-4.018-25.512 0-2.394 0.001-4.777 0.005-7.149h34.133c0.953 10.961 2.33 20.041 4.13 27.24zM228.055 206.035c0 5.102-1.276 9.397-3.826 12.884-2.551 3.529-6.591 5.294-12.119 5.293-5.528 0-10.035-1.063-13.521-3.189-3.529-2.126-5.4-5.315-5.612-9.567 0.213-3.614 0.319-9.567 0.318-17.858 0-3.303-0.021-6.749-0.063-10.338h34.019c0.536 9.314 0.804 16.906 0.804 22.775zM189.469 41.484c0-12.756 6.909-19.134 20.728-19.134 4.252 0 8.568 1.063 12.947 3.189 4.337 2.126 7.569 5.209 9.695 9.248 1.431 6.259 6.095 15.976 13.992 29.153l-57.176 0c-0.124-7.014-0.186-14.5-0.186-22.456z" fill="#ffffff" fill-rule="nonzero" stroke="none" stroke-width="1" stroke-linecap="butt" stroke-linejoin="miter" stroke-miterlimit="10" stroke-dasharray="" stroke-dashoffset="0" font-family="none" font-weight="none" font-size="none" text-anchor="none" style="mix-blend-mode: normal" data-fill-palette-color="tertiary"></path></g></g><g transform="matrix(1,0,0,1,0,72.40967728420023)"><svg viewBox="0 0 395.52 102.38064543159953" height="102.38064543159953" width="395.52"><g><svg viewBox="0 0 395.52 102.38064543159953" height="102.38064543159953" width="395.52"><g><svg viewBox="0 0 395.52 102.38064543159953" height="102.38064543159953" width="395.52"><g><svg viewBox="0 0 395.52 102.38064543159953" height="102.38064543159953" width="395.52"><g><svg viewBox="0 0 395.52 102.38064543159953" height="102.38064543159953" width="395.52"><g><svg viewBox="0 0 395.52 58.041415294309466" height="58.041415294309466" width="395.52"><g transform="matrix(1,0,0,1,0,0)"><svg width="395.52" viewBox="2.1500000953674316 -33.75 306.6199951171875 45" height="58.041415294309466" data-palette-color="#ffffff"><path d="M26.05-9.05Q26.05-6.7 24.98-5.03 23.9-3.35 21.45-1.95L21.45-1.95Q19.8-0.95 17.6-0.45 15.4 0.05 13.15 0.05L13.15 0.05Q10.85 0.05 7.45-1.45L7.45-1.45Q5-2.65 3.58-4.3 2.15-5.95 2.15-7.9L2.15-7.9Q2.15-9.25 2.75-9.88 3.35-10.5 4.7-10.5L4.7-10.5Q5.4-10.5 6.15-9.93 6.9-9.35 7.05-8.8L7.05-8.8Q7.75-6.75 9.5-5.68 11.25-4.6 13.85-4.6L13.85-4.6Q16.85-4.6 18.88-5.7 20.9-6.8 20.9-8.65L20.9-8.65Q20.9-10.45 18.7-11.85 16.5-13.25 14.2-13.8L14.2-13.8Q10.9-14.7 8.35-15.95L8.35-15.95Q5.7-17.25 4.4-19.15 3.1-21.05 3.1-23.15L3.1-23.15Q3.1-25.1 4.45-27.13 5.8-29.15 7.65-30.05L7.65-30.05Q8.65-30.55 11.08-31.13 13.5-31.7 14.6-31.7L14.6-31.7Q16.05-31.7 17.8-31.35 19.55-31 20.65-30.35L20.65-30.35Q22.85-29.1 23.9-28.1 24.95-27.1 24.95-25.6L24.95-25.6Q24.95-24.7 24.28-24 23.6-23.3 21.95-23.3L21.95-23.3Q21.55-23.3 21.15-23.65 20.75-24 20.15-24.7L20.15-24.7Q19.35-25.75 18.6-26.1L18.6-26.1Q17.85-26.35 16.43-26.65 15-26.95 13.9-26.95L13.9-26.95Q12.7-26.95 11.4-26.45 10.1-25.95 9.22-25.03 8.35-24.1 8.35-22.9L8.35-22.9Q8.35-21.9 9.28-21.18 10.2-20.45 11.5-20L11.5-20Q13-19.4 14.75-18.95L14.75-18.95Q17.05-18.25 18.53-17.68 20-17.1 21.4-16.25L21.4-16.25Q23.85-14.8 24.95-13.28 26.05-11.75 26.05-9.05L26.05-9.05ZM34.6 0.2Q33.6 0.2 32.9-0.15 32.2-0.5 32.05-0.9L32.05-0.9Q31.5-2.9 31.5-6.15L31.5-6.15Q31.5-12.15 31.7-15.9L31.7-15.9Q31.9-20.35 31.9-24.45L31.9-24.45Q31.9-25.65 31.6-27.95L31.6-27.95Q31.55-28.35 31.45-29.4 31.35-30.45 31.35-31.35L31.35-31.35Q31.35-32.45 32.12-33.1 32.9-33.75 34.15-33.75L34.15-33.75Q35.15-33.75 35.77-33.13 36.4-32.5 36.4-31.45L36.4-31.45Q36.4-29.85 36.5-26.95L36.5-26.95Q36.6-24.25 36.6-22.9L36.6-22.9Q36.6-21.4 36.5-18.9L36.5-18.9Q36.4-17.4 36.4-16.7L36.4-16.7Q36.4-14.5 36.45-13.05L36.45-13.05Q38.3-14.9 41.3-17.4 44.3-19.9 45.95-20.9L45.95-20.9Q47.7-21.95 48.25-21.95L48.25-21.95Q49.3-21.95 50.05-21.5 50.8-21.05 50.8-20.2L50.8-20.2Q50.8-19.35 50.55-18.85 50.3-18.35 49.65-17.85L49.65-17.85 43.2-13.15Q44.3-12.6 45.07-11.75 45.85-10.9 46.65-9.65L46.65-9.65Q48.35-6.85 49.37-5.55 50.4-4.25 51.25-4.25L51.25-4.25 52.5-4.3Q52.85-4.3 53.12-3.9 53.4-3.5 53.4-2.75L53.4-2.75Q53.4-1.6 52.27-0.9 51.15-0.2 49.75-0.2L49.75-0.2Q47.8-0.2 46.3-1.73 44.8-3.25 43.45-5.85L43.45-5.85Q41.5-9.55 39.6-10.25L39.6-10.25 36.4-7.65 36.6-2.2Q36.6-0.9 35.92-0.35 35.25 0.2 34.6 0.2L34.6 0.2ZM62.05 10.2Q60.15 10.2 58.87 9.58 57.6 8.95 56.97 8.08 56.35 7.2 56.35 6.55L56.35 6.55Q56.35 5.7 56.95 5.23 57.55 4.75 58.4 4.75L58.4 4.75Q58.9 4.75 59.35 5.05 59.8 5.35 59.85 5.4L59.85 5.4Q60.2 5.65 60.55 5.83 60.9 6 61.3 6L61.3 6Q62.4 6 63.1 4.55 63.8 3.1 64.5-0.15L64.5-0.15Q62.25-3.45 60.75-6.75L60.75-6.75 59.6-9.4Q59.35-10 58.22-12.53 57.1-15.05 56-17L56-17Q55.3-18.4 55.3-18.9L55.3-18.9Q55.3-20.15 56.17-20.75 57.05-21.35 58.2-21.35L58.2-21.35Q59-21.35 59.42-21.03 59.85-20.7 60.4-19.85L60.4-19.85Q61.85-17.45 63.55-12.65L63.55-12.65Q64.55-9.9 65.15-8.47 65.75-7.05 66.6-5.6L66.6-5.6Q67.45-7.55 68.75-12.25L68.75-12.25Q69.55-14.95 70.07-16.57 70.6-18.2 71.25-19.55L71.25-19.55Q71.7-20.45 72.37-21 73.05-21.55 73.9-21.55L73.9-21.55Q74.75-21.55 75.72-20.93 76.7-20.3 76.7-19.45L76.7-19.45Q76.7-18.95 76.35-18.25L76.35-18.25Q74.4-13.75 72.92-9.78 71.45-5.8 70.1-1.05L70.1-1.05Q69.3 1.6 68.42 4 67.55 6.4 67.2 6.95L67.2 6.95Q66.2 8.35 64.95 9.28 63.7 10.2 62.05 10.2L62.05 10.2ZM121.09-31.6Q121.79-31.6 122.82-30.68 123.84-29.75 123.84-29.1L123.84-29.1Q123.84-26.05 123.64-20.75L123.64-20.75Q123.59-19.45 123.54-17.63 123.49-15.8 123.49-13.4L123.49-13.4Q123.49-5.8 124.39-2.2L124.39-2.2Q124.34-1 123.44-0.48 122.54 0.05 121.64 0.05L121.64 0.05Q119.64 0.05 119.02-1.35 118.39-2.75 118.39-5.35L118.39-5.35Q118.39-15 118.59-23.1L118.59-23.1Q112.84-16.7 109.64-12.35L109.64-12.35Q109.64-12.35 108.74-11.75L108.74-11.75Q107.89-11 107.34-11L107.34-11Q106.04-11 105.19-11.65 104.34-12.3 103.54-13.55L103.54-13.55 101.14-16.95Q98.64-20.45 97.49-22.25L97.49-22.25Q97.49-17.65 97.94-9.75L97.94-9.75Q98.29-5.2 98.29-2.9L98.29-2.9Q98.29-1.7 97.69-0.88 97.09-0.05 95.79-0.05L95.79-0.05Q94.49-0.05 93.67-0.55 92.84-1.05 92.79-2.05L92.79-2.05Q92.84-2.9 92.84-4.85L92.84-4.85Q92.84-8.75 92.59-14.35L92.59-14.35 92.49-17.05 92.39-20.55Q92.34-22.1 92.29-24.18 92.24-26.25 92.24-28.7L92.24-28.7Q92.24-31.7 95.49-31.7L95.49-31.7Q96.49-31.7 97.52-31.2 98.54-30.7 99.04-29.75L99.04-29.75Q99.44-28 101.99-23.95 104.54-19.9 106.99-16.35L106.99-16.35Q109.19-19.15 110.59-20.55L110.59-20.55Q112.99-23 114.57-25.1 116.14-27.2 117.99-30.15L117.99-30.15Q118.44-30.75 119.29-31.18 120.14-31.6 121.09-31.6L121.09-31.6ZM153.34-2.4Q153.34-1.3 152.16-0.55 150.99 0.2 149.99 0.2L149.99 0.2Q148.09 0.2 146.96-0.28 145.84-0.75 144.89-2.05L144.89-2.05Q143.59-0.9 141.34-0.33 139.09 0.25 137.19 0.25L137.19 0.25Q134.09 0.25 132.09-1.43 130.09-3.1 130.09-6.35L130.09-6.35Q130.09-7.75 130.84-8.93 131.59-10.1 132.89-11L132.89-11Q134.34-11.95 136.19-12.48 138.04-13 140.04-13L140.04-13Q141.09-13 142.54-12.6 143.99-12.2 144.79-11.75L144.79-11.75 144.79-12.55Q144.79-15.25 143.49-16.28 142.19-17.3 139.29-17.3L139.29-17.3Q138.44-17.3 137.61-16.95 136.79-16.6 135.74-16L135.74-16Q134.34-15.25 133.09-15.25L133.09-15.25Q132.64-15.25 132.24-15.88 131.84-16.5 131.84-17L131.84-17Q131.84-18.45 133.21-19.5 134.59-20.55 136.49-21.08 138.39-21.6 139.89-21.6L139.89-21.6Q141.39-21.6 143.34-21.03 145.29-20.45 146.54-19.45L146.54-19.45Q148.04-18.15 148.86-16.43 149.69-14.7 149.69-12.65L149.69-12.65Q149.69-12 149.59-10.7L149.59-10.7Q149.49-9.3 149.49-8.3L149.49-8.3Q149.49-7.85 149.39-6.95L149.39-6.95Q149.29-5.85 149.29-5.2L149.29-5.2Q149.29-4.6 149.74-4.17 150.19-3.75 150.79-3.75L150.79-3.75 152.19-3.8Q152.74-3.8 153.04-3.4 153.34-3 153.34-2.4L153.34-2.4ZM137.24-3.7Q139.39-3.7 140.84-4.15 142.29-4.6 144.34-5.8L144.34-5.8Q144.54-6.65 144.59-8.05L144.59-8.05Q141.84-9.35 140.04-9.35L140.04-9.35Q137.99-9.35 136.39-8.6 134.79-7.85 134.79-5.95L134.79-5.95Q134.79-5 135.59-4.35 136.39-3.7 137.24-3.7L137.24-3.7ZM164.04-2Q164.04-1.15 163.39-0.5 162.74 0.15 161.79 0.15L161.79 0.15Q160.29 0.15 159.59-0.43 158.89-1 158.89-2.55L158.89-2.55Q158.89-4.4 158.79-7.4L158.79-7.4Q158.69-9.9 158.69-11.6L158.69-11.6Q158.69-12.4 158.79-13.7L158.79-13.7Q158.89-14.9 158.89-15.5L158.89-15.5Q158.74-16.45 158.14-17.07 157.54-17.7 156.59-17.7L156.59-17.7Q156.14-17.7 155.84-18.13 155.54-18.55 155.54-19L155.54-19Q155.54-20.15 156.46-20.75 157.39-21.35 158.69-21.35L158.69-21.35Q161.39-21.35 162.44-18.15L162.44-18.15Q163.74-19.65 165.41-20.58 167.09-21.5 168.64-21.5L168.64-21.5Q170.49-21.5 172.01-20.5 173.54-19.5 173.54-17.8L173.54-17.8Q173.54-16.85 172.71-15.85 171.89-14.85 171.04-14.85L171.04-14.85Q170.59-14.85 170.26-15.08 169.94-15.3 169.49-15.75L169.49-15.75Q168.99-16.25 168.64-16.48 168.29-16.7 167.84-16.7L167.84-16.7Q167.04-16.7 166.34-16.45 165.64-16.2 165.39-15.85L165.39-15.85Q164.59-14.6 164.21-13.6 163.84-12.6 163.84-11.45L163.84-11.45Q163.84-10.6 163.79-10.1L163.79-10.1 163.74-7.25Q163.74-6.6 163.79-5.8 163.84-5 163.89-4.6L163.89-4.6Q164.04-3.25 164.04-2L164.04-2ZM180.33 0.2Q179.33 0.2 178.63-0.15 177.93-0.5 177.78-0.9L177.78-0.9Q177.23-2.9 177.23-6.15L177.23-6.15Q177.23-12.15 177.43-15.9L177.43-15.9Q177.63-20.35 177.63-24.45L177.63-24.45Q177.63-25.65 177.33-27.95L177.33-27.95Q177.28-28.35 177.18-29.4 177.08-30.45 177.08-31.35L177.08-31.35Q177.08-32.45 177.86-33.1 178.63-33.75 179.88-33.75L179.88-33.75Q180.88-33.75 181.51-33.13 182.13-32.5 182.13-31.45L182.13-31.45Q182.13-29.85 182.23-26.95L182.23-26.95Q182.33-24.25 182.33-22.9L182.33-22.9Q182.33-21.4 182.23-18.9L182.23-18.9Q182.13-17.4 182.13-16.7L182.13-16.7Q182.13-14.5 182.18-13.05L182.18-13.05Q184.03-14.9 187.03-17.4 190.03-19.9 191.68-20.9L191.68-20.9Q193.43-21.95 193.98-21.95L193.98-21.95Q195.03-21.95 195.78-21.5 196.53-21.05 196.53-20.2L196.53-20.2Q196.53-19.35 196.28-18.85 196.03-18.35 195.38-17.85L195.38-17.85 188.93-13.15Q190.03-12.6 190.81-11.75 191.58-10.9 192.38-9.65L192.38-9.65Q194.08-6.85 195.11-5.55 196.13-4.25 196.98-4.25L196.98-4.25 198.23-4.3Q198.58-4.3 198.86-3.9 199.13-3.5 199.13-2.75L199.13-2.75Q199.13-1.6 198.01-0.9 196.88-0.2 195.48-0.2L195.48-0.2Q193.53-0.2 192.03-1.73 190.53-3.25 189.18-5.85L189.18-5.85Q187.23-9.55 185.33-10.25L185.33-10.25 182.13-7.65 182.33-2.2Q182.33-0.9 181.66-0.35 180.98 0.2 180.33 0.2L180.33 0.2ZM201.93-10.6Q201.93-12.5 202.63-14.43 203.33-16.35 204.48-17.95L204.48-17.95Q205.63-19.55 208.13-20.58 210.63-21.6 212.58-21.6L212.58-21.6Q214.58-21.6 216.66-21.05 218.73-20.5 219.53-19.35L219.53-19.35Q221.38-16.75 221.38-14.25L221.38-14.25Q221.38-12.9 220.81-11.95 220.23-11 219.18-9.9L219.18-9.9Q218.33-9 216.51-8.7 214.68-8.4 212.88-8.4L212.88-8.4Q211.73-8.4 210.08-8.63 208.43-8.85 206.88-9.2L206.88-9.2Q206.98-8.2 207.38-7.25 207.78-6.3 208.33-5.8L208.33-5.8Q209.33-4.85 210.41-4.6 211.48-4.35 213.18-4.35L213.18-4.35Q214.98-4.35 216.53-4.95L216.53-4.95Q217.78-5.4 218.58-5.4L218.58-5.4Q219.53-5.4 220.03-4.83 220.53-4.25 220.53-3.35L220.53-3.35Q220.53-2.1 219.08-1.3 217.63-0.5 215.76-0.13 213.88 0.25 212.73 0.25L212.73 0.25Q210.38 0.25 208.18-0.6 205.98-1.45 204.53-3L204.53-3Q203.33-4.4 202.63-6.38 201.93-8.35 201.93-10.6L201.93-10.6ZM212.83-17.35Q211.73-17.35 210.63-16.93 209.53-16.5 208.83-15.75L208.83-15.75Q207.93-14.8 207.61-14.23 207.28-13.65 207.18-12.65L207.18-12.65Q208.43-12.25 212.38-12.25L212.38-12.25Q214.53-12.25 215.71-12.9 216.88-13.55 216.88-14.6L216.88-14.6Q216.88-15.65 215.58-16.5 214.28-17.35 212.83-17.35L212.83-17.35ZM228.58-17.1L226.18-17.3Q225.48-17.4 225.05-17.9 224.63-18.4 224.63-19.1L224.63-19.1Q224.63-19.45 224.8-19.85 224.98-20.25 225.33-20.55L225.33-20.55Q225.98-21.2 228.83-21.2L228.83-21.2Q229.23-23.15 229.23-25.15L229.23-25.15Q229.23-25.9 229.18-26.45 229.13-27 229.13-27.3L229.13-27.3Q229.13-28.4 229.95-28.95 230.78-29.5 231.83-29.5L231.83-29.5Q233.13-29.5 233.6-28.85 234.08-28.2 234.08-26.45L234.08-26.45Q234.08-23.85 233.63-21.35L233.63-21.35Q234.43-21.35 235.83-21.45L235.83-21.45Q237.73-21.55 238.58-21.55L238.58-21.55Q239.43-21.55 240.05-21.13 240.68-20.7 240.68-19.95L240.68-19.95Q240.68-18 238.93-17.65L238.93-17.65Q237.08-17.2 233.18-17.1L233.18-17.1Q233.03-15.15 233.03-12.85L233.03-12.85Q233.03-9.25 233.48-6.95L233.48-6.95Q233.78-5.35 234.5-4.63 235.23-3.9 236.68-3.9L236.68-3.9Q237.53-3.9 238.43-4.35L238.43-4.35Q239.03-4.7 239.53-4.7L239.53-4.7Q240.23-4.7 240.55-4.25 240.88-3.8 240.88-3.05L240.88-3.05Q240.88-1.65 239.38-0.73 237.88 0.2 235.53 0.2L235.53 0.2Q234.08 0.2 232.6-0.5 231.13-1.2 230.13-2.25L230.13-2.25Q229.98-2.4 229.58-3.4 229.18-4.4 228.88-5.55L228.88-5.55Q228.38-7.9 228.38-12.15L228.38-12.15Q228.38-14 228.58-17.1L228.58-17.1ZM247.53-32.1Q249.28-31.95 250.58-31.18 251.88-30.4 251.88-28.85L251.88-28.85Q251.88-27.7 250.8-27.03 249.73-26.35 248.23-26.35L248.23-26.35Q246.78-26.35 246.23-27.1 245.68-27.85 245.68-28.65L245.68-28.65Q245.68-30.15 246-31.15 246.33-32.15 247.53-32.1L247.53-32.1ZM251.53-18.95L251.53-9.95 251.53-8.5Q251.53-6.55 251.65-4.83 251.78-3.1 251.98-1.35L251.98-1.35Q251.93-0.85 251.23-0.33 250.53 0.2 249.98 0.2L249.98 0.2Q249.03 0.2 248.05-0.18 247.08-0.55 246.88-1.1L246.88-1.1Q246.58-2.7 246.58-3.95L246.58-3.95Q246.58-8.05 246.33-13.15L246.33-13.15Q246.13-17.65 246.13-19.45L246.13-19.45Q246.13-20.35 247.03-21 247.93-21.65 248.93-21.65L248.93-21.65Q250.38-21.65 250.95-21 251.53-20.35 251.53-18.95L251.53-18.95ZM280.57-3.85Q280.82-3.75 281.37-3.6 281.92-3.45 282.17-3.3 282.42-3.15 282.42-2.85L282.42-2.85Q282.47-1.65 281.55-0.88 280.62-0.1 279.37-0.1L279.37-0.1Q277.42-0.1 276.32-1.15 275.22-2.2 274.72-4.35L274.72-4.35Q274.52-5.2 274.52-6.7L274.52-6.7Q274.52-7.55 274.62-9.45L274.62-9.45Q274.72-11.45 274.72-12.65L274.72-12.65Q274.72-14.4 273.75-15.73 272.77-17.05 271.02-17.05L271.02-17.05Q269.97-17.05 268.82-16.43 267.67-15.8 267.22-14.9L267.22-14.9Q266.47-13.45 266.17-11.75L266.17-11.75Q265.62-8.75 265.62-5.5L265.62-5.5Q265.62-3.95 265.67-3.1L265.67-3.1Q265.67-2.9 265.7-2.33 265.72-1.75 265.6-1.28 265.47-0.8 265.17-0.4L265.17-0.4Q264.92-0.15 264.4 0.03 263.87 0.2 263.42 0.2L263.42 0.2Q262.72 0.2 261.67-0.4 260.62-1 260.47-1.75L260.47-1.75 260.42-2.6Q260.42-3.05 260.52-3.65L260.52-3.65Q261.12-7.15 261.12-9.75L261.12-9.75Q261.12-10.9 261.07-11.55L261.07-11.55 261.02-13.9Q261.02-15.1 260.42-16.23 259.82-17.35 259.02-17.35L259.02-17.35Q258.77-17.35 258.32-17.18 257.87-17 257.57-17L257.57-17Q257.07-17 256.5-17.5 255.92-18 255.92-18.55L255.92-18.55Q255.92-19.6 256.62-20.25L256.62-20.25Q257.37-20.85 258.1-21.2 258.82-21.55 259.77-21.55L259.77-21.55Q260.57-21.55 261.07-21.4 261.57-21.25 262.42-20.75L262.42-20.75Q262.87-20.5 263.47-19.65 264.07-18.8 264.47-17.25L264.47-17.25Q265.77-19.65 267.7-20.63 269.62-21.6 272.62-21.6L272.62-21.6Q273.77-21.6 275.1-20.85 276.42-20.1 277.37-19.1L277.37-19.1Q278.27-18 278.87-16.38 279.47-14.75 279.47-13.45L279.47-13.45Q279.47-12.7 279.37-11L279.37-11Q279.22-9.65 279.22-8.15L279.22-8.15Q279.22-4.65 280.57-3.85L280.57-3.85ZM304.07-0.1Q305.42 0.85 305.9 2 306.37 3.15 306.37 5.2L306.37 5.2Q306.37 6.2 305.8 7.2 305.22 8.2 304.62 8.65L304.62 8.65Q299.87 11.25 295.12 11.25L295.12 11.25Q292.77 11.25 291.07 10.65 289.37 10.05 287.87 9.05L287.87 9.05Q286.87 8.3 286.25 6.98 285.62 5.65 285.62 4.35L285.62 4.35Q285.62 2.55 286.75 1.2 287.87-0.15 289.77-0.75L289.77-0.75Q289.42-1.5 289.42-2.5L289.42-2.5Q289.42-3.45 290.82-5.35L290.82-5.35Q288.42-6.15 287.05-8.2 285.67-10.25 285.67-13L285.67-13Q285.67-14.7 286.47-16.03 287.27-17.35 288.87-19.1L288.87-19.1Q289.97-20.3 291.67-20.85 293.37-21.4 295.92-21.4L295.92-21.4Q297.72-21.4 300.37-20.6L300.37-20.6Q303.52-22.8 305.92-22.8L305.92-22.8Q306.52-22.8 307.3-22.5 308.07-22.2 308.47-21.9L308.47-21.9Q308.77-21.35 308.77-20.05L308.77-20.05Q308.77-19.55 308.35-19.07 307.92-18.6 307.27-18.6L307.27-18.6 306.07-18.65Q305.17-18.75 304.67-18.75L304.67-18.75Q304.12-18.75 303.02-18.65L303.02-18.65Q304.07-17.4 304.65-16 305.22-14.6 305.22-12.35L305.22-12.35Q305.22-10.65 303.97-8.8 302.72-6.95 301.02-5.9L301.02-5.9Q298.42-4.5 294.97-4.45L294.97-4.45Q294.57-4.05 294.3-3.73 294.02-3.4 294.02-3.2L294.02-3.2Q294.02-2.65 294.97-2.35 295.92-2.05 297.87-1.9L297.87-1.9Q299.37-1.8 301.2-1.28 303.02-0.75 304.07-0.1L304.07-0.1ZM295.27-8.55Q297.57-8.55 298.97-9.8 300.37-11.05 300.37-13.35L300.37-13.35Q300.37-15.1 299.12-16.2 297.87-17.3 295.92-17.3L295.92-17.3Q294.67-17.3 293.25-16.88 291.82-16.45 291.22-15.55L291.22-15.55Q290.92-15.15 290.62-14.03 290.32-12.9 290.32-12.3L290.32-12.3Q290.32-11.45 291.05-10.58 291.77-9.7 292.95-9.13 294.12-8.55 295.27-8.55L295.27-8.55ZM298.42 2.3Q295.67 2.05 294.55 1.83 293.42 1.6 292.72 1.3L292.72 1.3Q290.17 2.65 290.17 4.25L290.17 4.25Q290.17 5.75 291.72 6.53 293.27 7.3 295.27 7.3L295.27 7.3Q296.17 7.3 297.72 7.1 299.27 6.9 300.32 6.4L300.32 6.4Q301.02 6.05 301.37 5.73 301.72 5.4 301.72 4.55L301.72 4.55Q301.72 3.5 300.62 2.95 299.52 2.4 298.42 2.3L298.42 2.3Z" opacity="1" transform="matrix(1,0,0,1,0,0)" fill="#ffffff" class="undefined-text-0" data-fill-palette-color="primary" id="text-0"></path></svg></g></svg></g><g transform="matrix(1,0,0,1,0,66.51105077971629)"><svg viewBox="0 0 395.52 35.86959465188325" height="35.86959465188325" width="395.52"><g transform="matrix(1,0,0,1,0,0)"><svg width="395.52" viewBox="5.050000190734863 -37.9900016784668 551.3300170898438 50" height="35.86959465188325" data-palette-color="#ffffff"><path d="M22.34 0L20.75 0 7.45-32.96 7.25-32.96Q7.45-29.93 7.45-26.76L7.45-26.76 7.45 0 5.05 0 5.05-35.69 8.91-35.69 21.56-4.3 21.7-4.3 34.35-35.69 38.11-35.69 38.11 0 35.6 0 35.6-27.05Q35.6-29.88 35.89-32.91L35.89-32.91 35.69-32.91 22.34 0ZM107.1 0L105.32 0 104.71-4.2 104.51-4.2Q102.51-1.64 100.4-0.57 98.29 0.49 95.41 0.49L95.41 0.49Q91.5 0.49 89.33-1.51 87.15-3.52 87.15-7.06L87.15-7.06Q87.15-10.94 90.39-13.09 93.62-15.23 99.75-15.36L99.75-15.36 104.8-15.5 104.8-17.26Q104.8-21.04 103.27-22.97 101.73-24.9 98.31-24.9L98.31-24.9Q94.62-24.9 90.67-22.85L90.67-22.85 89.77-24.95Q94.14-27 98.41-27L98.41-27Q102.78-27 104.94-24.73 107.1-22.46 107.1-17.65L107.1-17.65 107.1 0ZM95.55-1.71L95.55-1.71Q99.8-1.71 102.25-4.14 104.71-6.57 104.71-10.89L104.71-10.89 104.71-13.5 100.07-13.31Q94.48-13.04 92.1-11.56 89.72-10.08 89.72-6.96L89.72-6.96Q89.72-4.47 91.24-3.09 92.77-1.71 95.55-1.71ZM167.76-27.05L167.76-27.05Q169.45-27.05 171.38-26.71L171.38-26.71 170.91-24.39Q169.25-24.8 167.47-24.8L167.47-24.8Q164.08-24.8 161.9-21.92 159.73-19.04 159.73-14.65L159.73-14.65 159.73 0 157.32 0 157.32-26.54 159.37-26.54 159.61-21.75 159.78-21.75Q161.42-24.68 163.27-25.87 165.13-27.05 167.76-27.05ZM220.64-11.65L220.76-11.65 234.31-26.54 237.24-26.54 226.79-15.21 238.15 0 235.24 0 225.16-13.4 220.81-9.45 220.81 0 218.39 0 218.39-37.99 220.81-37.99 220.81-18.95 220.64-11.65ZM294.93 0.49L294.93 0.49Q289.14 0.49 285.91-3.08 282.67-6.64 282.67-13.06L282.67-13.06Q282.67-19.41 285.8-23.23 288.92-27.05 294.22-27.05L294.22-27.05Q298.91-27.05 301.62-23.78 304.33-20.51 304.33-14.89L304.33-14.89 304.33-12.94 285.21-12.94Q285.26-7.47 287.76-4.59 290.26-1.71 294.93-1.71L294.93-1.71Q297.2-1.71 298.92-2.03 300.64-2.34 303.28-3.39L303.28-3.39 303.28-1.2Q301.03-0.22 299.13 0.13 297.22 0.49 294.93 0.49ZM294.22-24.9L294.22-24.9Q290.39-24.9 288.07-22.38 285.75-19.85 285.36-15.09L285.36-15.09 301.76-15.09Q301.76-19.7 299.76-22.3 297.76-24.9 294.22-24.9ZM360.28-1.66L360.28-1.66Q362.57-1.66 364.28-2.05L364.28-2.05 364.28-0.1Q362.53 0.49 360.23 0.49L360.23 0.49Q356.72 0.49 355.04-1.39 353.37-3.27 353.37-7.3L353.37-7.3 353.37-24.44 349.44-24.44 349.44-25.85 353.37-26.95 354.59-32.96 355.84-32.96 355.84-26.54 363.62-26.54 363.62-24.44 355.84-24.44 355.84-7.64Q355.84-4.59 356.91-3.13 357.98-1.66 360.28-1.66ZM414.06-26.54L414.06 0 411.64 0 411.64-26.54 414.06-26.54ZM411.3-33.91L411.3-33.91Q411.3-36.25 412.84-36.25L412.84-36.25Q413.6-36.25 414.02-35.64 414.45-35.03 414.45-33.91L414.45-33.91Q414.45-32.81 414.02-32.18 413.6-31.54 412.84-31.54L412.84-31.54Q411.3-31.54 411.3-33.91ZM485.47 0L483.07 0 483.07-17.21Q483.07-21.22 481.39-23.03 479.7-24.85 476.16-24.85L476.16-24.85Q471.4-24.85 469.19-22.45 466.98-20.04 466.98-14.65L466.98-14.65 466.98 0 464.57 0 464.57-26.54 466.62-26.54 467.08-22.9 467.23-22.9Q469.82-27.05 476.43-27.05L476.43-27.05Q485.47-27.05 485.47-17.36L485.47-17.36 485.47 0ZM547.89-26.54L556.38-26.54 556.38-24.85 550.89-24.51Q553.09-21.78 553.09-18.51L553.09-18.51Q553.09-14.67 550.54-12.29 547.99-9.91 543.69-9.91L543.69-9.91Q541.88-9.91 541.15-10.06L541.15-10.06Q539.71-9.3 538.95-8.28 538.2-7.25 538.2-6.1L538.2-6.1Q538.2-4.83 539.16-4.25 540.12-3.66 542.39-3.66L542.39-3.66 547.03-3.66Q551.35-3.66 553.65-1.92 555.94-0.17 555.94 3.25L555.94 3.25Q555.94 7.45 552.54 9.73 549.13 12.01 542.83 12.01L542.83 12.01Q537.83 12.01 535.08 10.08 532.34 8.15 532.34 4.71L532.34 4.71Q532.34 1.98 534.03 0.17 535.73-1.64 538.64-2.29L538.64-2.29Q537.44-2.81 536.72-3.75 536-4.69 536-5.91L536-5.91Q536-8.57 539.39-10.6L539.39-10.6Q537.07-11.55 535.78-13.59 534.48-15.63 534.48-18.26L534.48-18.26Q534.48-22.24 537.01-24.65 539.54-27.05 543.84-27.05L543.84-27.05Q546.45-27.05 547.89-26.54L547.89-26.54ZM534.9 4.49L534.9 4.49Q534.9 9.96 543.03 9.96L543.03 9.96Q553.48 9.96 553.48 3.3L553.48 3.3Q553.48 0.9 551.84-0.17 550.21-1.25 546.55-1.25L546.55-1.25 542.2-1.25Q534.9-1.25 534.9 4.49ZM536.93-18.26L536.93-18.26Q536.93-15.19 538.79-13.49 540.66-11.79 543.79-11.79L543.79-11.79Q547.11-11.79 548.88-13.48 550.65-15.16 550.65-18.36L550.65-18.36Q550.65-21.75 548.83-23.45 547.01-25.15 543.74-25.15L543.74-25.15Q540.56-25.15 538.75-23.33 536.93-21.51 536.93-18.26Z" opacity="1" transform="matrix(1,0,0,1,0,0)" fill="#ffffff" class="undefined-text-1" data-fill-palette-color="secondary" id="text-1"></path></svg></g></svg></g></svg></g></svg></g><g></g></svg></g></svg></g></svg></g></svg></g><defs></defs></svg><rect width="395.52" height="247.2" fill="none" stroke="none" visibility="hidden"></rect></g></svg></g></svg>